<svg width="1200" height="760" viewBox="0 0 1200 760" fill="none" xmlns="http://www.w3.org/2000/svg">
  <defs>
    <linearGradient id="bg4" x1="120" y1="80" x2="1060" y2="700" gradientUnits="userSpaceOnUse">
      <stop stop-color="#0F172A"/>
      <stop offset="1" stop-color="#1E1B4B"/>
    </linearGradient>
  </defs>
  <rect width="1200" height="760" rx="36" fill="url(#bg4)"/>
  <text x="84" y="104" fill="#F8FAFC" font-family="Segoe UI, Arial, sans-serif" font-size="28" font-weight="700">OpsLens</text>
  <text x="84" y="144" fill="#C4B5FD" font-family="Segoe UI, Arial, sans-serif" font-size="18" font-weight="600">Client-side analytics explorer</text>
  <text x="84" y="194" fill="#D1D5DB" font-family="Segoe UI, Arial, sans-serif" font-size="20">A browser-first experience for uploading CSV and Excel files, previewing data, and surfacing quick insights with zero backend.</text>

  <rect x="84" y="248" width="1032" height="420" rx="34" fill="#111827" stroke="#374151"/>
  <rect x="124" y="286" width="320" height="68" rx="18" fill="#1F2937"/>
  <text x="154" y="329" fill="#E5E7EB" font-family="Segoe UI, Arial, sans-serif" font-size="22" font-weight="700">Upload dataset</text>
  <rect x="124" y="390" width="210" height="108" rx="20" fill="#312E81"/>
  <rect x="358" y="390" width="210" height="108" rx="20" fill="#1D4ED8"/>
  <rect x="592" y="390" width="210" height="108" rx="20" fill="#047857"/>
  <rect x="826" y="390" width="250" height="220" rx="20" fill="#1F2937"/>
  <text x="152" y="432" fill="#EDE9FE" font-family="Segoe UI, Arial, sans-serif" font-size="18" font-weight="700">Rows</text>
  <text x="152" y="470" fill="#EDE9FE" font-family="Segoe UI, Arial, sans-serif" font-size="36" font-weight="700">1,250</text>
  <text x="386" y="432" fill="#DBEAFE" font-family="Segoe UI, Arial, sans-serif" font-size="18" font-weight="700">Columns</text>
  <text x="386" y="470" fill="#DBEAFE" font-family="Segoe UI, Arial, sans-serif" font-size="36" font-weight="700">28</text>
  <text x="620" y="432" fill="#D1FAE5" font-family="Segoe UI, Arial, sans-serif" font-size="18" font-weight="700">Missing values</text>
  <text x="620" y="470" fill="#D1FAE5" font-family="Segoe UI, Arial, sans-serif" font-size="36" font-weight="700">3.2%</text>
  <text x="856" y="430" fill="#E5E7EB" font-family="Segoe UI, Arial, sans-serif" font-size="18" font-weight="700">Quick insight</text>
  <path d="M860 566L900 524L938 540L982 486L1044 512" stroke="#A78BFA" stroke-width="8" stroke-linecap="round" stroke-linejoin="round"/>
  <text x="124" y="620" fill="#CBD5E1" font-family="Segoe UI, Arial, sans-serif" font-size="18">Built to make data exploration feel immediate, visual, and usable for non-technical users.</text>
</svg>
